<mxfile host="app.diagrams.net" agent="Mozilla/5.0 (X11; Ubuntu; Linux x86_64; rv:130.0) Gecko/20100101 Firefox/130.0" version="24.7.12">
  <diagram name="Page-1" id="FNTdVRbgPGLcr14oMT5p">
    <mxGraphModel dx="988" dy="331" grid="1" gridSize="10" guides="1" tooltips="1" connect="1" arrows="1" fold="1" page="1" pageScale="1" pageWidth="827" pageHeight="1169" math="0" shadow="0">
      <root>
        <mxCell id="0" />
        <mxCell id="1" parent="0" />
        <mxCell id="a5Tx_0ahdsPdAguqlhMa-38" style="edgeStyle=orthogonalEdgeStyle;rounded=0;orthogonalLoop=1;jettySize=auto;html=1;entryX=0;entryY=0.5;entryDx=0;entryDy=0;curved=1;dashed=1;" edge="1" parent="1" source="a5Tx_0ahdsPdAguqlhMa-7" target="a5Tx_0ahdsPdAguqlhMa-9">
          <mxGeometry relative="1" as="geometry" />
        </mxCell>
        <mxCell id="a5Tx_0ahdsPdAguqlhMa-7" value="RNASTAR: first pass" style="rounded=1;whiteSpace=wrap;html=1;fillColor=#e51400;strokeColor=#B20000;fontColor=#ffffff;" vertex="1" parent="1">
          <mxGeometry x="220" y="190" width="120" height="20" as="geometry" />
        </mxCell>
        <mxCell id="a5Tx_0ahdsPdAguqlhMa-43" style="edgeStyle=orthogonalEdgeStyle;rounded=0;orthogonalLoop=1;jettySize=auto;html=1;entryX=0.5;entryY=0;entryDx=0;entryDy=0;curved=1;exitX=1;exitY=0.5;exitDx=0;exitDy=0;" edge="1" parent="1" source="a5Tx_0ahdsPdAguqlhMa-9" target="a5Tx_0ahdsPdAguqlhMa-39">
          <mxGeometry relative="1" as="geometry" />
        </mxCell>
        <mxCell id="a5Tx_0ahdsPdAguqlhMa-9" value="New splicing sites database" style="rounded=1;whiteSpace=wrap;html=1;fillColor=#008a00;strokeColor=#005700;fontColor=#ffffff;" vertex="1" parent="1">
          <mxGeometry x="320" y="120" width="80" height="40" as="geometry" />
        </mxCell>
        <mxCell id="a5Tx_0ahdsPdAguqlhMa-11" value="RNA-seq reads" style="rounded=1;whiteSpace=wrap;html=1;fillColor=#e3c800;strokeColor=#B09500;fontColor=#000000;" vertex="1" parent="1">
          <mxGeometry x="60" y="230" width="90" height="40" as="geometry" />
        </mxCell>
        <mxCell id="a5Tx_0ahdsPdAguqlhMa-35" style="edgeStyle=orthogonalEdgeStyle;rounded=0;orthogonalLoop=1;jettySize=auto;html=1;entryX=0;entryY=0.5;entryDx=0;entryDy=0;curved=1;" edge="1" parent="1" source="a5Tx_0ahdsPdAguqlhMa-16" target="a5Tx_0ahdsPdAguqlhMa-7">
          <mxGeometry relative="1" as="geometry" />
        </mxCell>
        <mxCell id="a5Tx_0ahdsPdAguqlhMa-40" style="edgeStyle=orthogonalEdgeStyle;rounded=0;orthogonalLoop=1;jettySize=auto;html=1;exitX=1;exitY=0.5;exitDx=0;exitDy=0;entryX=0;entryY=0.5;entryDx=0;entryDy=0;curved=1;" edge="1" parent="1" source="a5Tx_0ahdsPdAguqlhMa-16" target="a5Tx_0ahdsPdAguqlhMa-39">
          <mxGeometry relative="1" as="geometry">
            <Array as="points">
              <mxPoint x="170" y="170" />
              <mxPoint x="350" y="170" />
              <mxPoint x="350" y="200" />
            </Array>
          </mxGeometry>
        </mxCell>
        <mxCell id="a5Tx_0ahdsPdAguqlhMa-16" value="Reference genome sequence" style="rounded=1;whiteSpace=wrap;html=1;fillColor=#0050ef;strokeColor=#001DBC;fontColor=#ffffff;" vertex="1" parent="1">
          <mxGeometry x="60" y="120" width="110" height="40" as="geometry" />
        </mxCell>
        <mxCell id="a5Tx_0ahdsPdAguqlhMa-34" style="edgeStyle=orthogonalEdgeStyle;rounded=0;orthogonalLoop=1;jettySize=auto;html=1;exitX=1;exitY=0.5;exitDx=0;exitDy=0;curved=1;" edge="1" parent="1" source="a5Tx_0ahdsPdAguqlhMa-19" target="a5Tx_0ahdsPdAguqlhMa-7">
          <mxGeometry relative="1" as="geometry" />
        </mxCell>
        <mxCell id="a5Tx_0ahdsPdAguqlhMa-41" style="edgeStyle=orthogonalEdgeStyle;rounded=0;orthogonalLoop=1;jettySize=auto;html=1;exitX=1;exitY=0.5;exitDx=0;exitDy=0;curved=1;" edge="1" parent="1" source="a5Tx_0ahdsPdAguqlhMa-19">
          <mxGeometry relative="1" as="geometry">
            <mxPoint x="380" y="200" as="targetPoint" />
            <Array as="points">
              <mxPoint x="170" y="220" />
              <mxPoint x="275" y="220" />
              <mxPoint x="275" y="240" />
              <mxPoint x="360" y="240" />
              <mxPoint x="360" y="200" />
            </Array>
          </mxGeometry>
        </mxCell>
        <mxCell id="a5Tx_0ahdsPdAguqlhMa-19" value="Reference annotation" style="rounded=1;whiteSpace=wrap;html=1;fillColor=#1ba1e2;strokeColor=#006EAF;fontColor=#ffffff;" vertex="1" parent="1">
          <mxGeometry x="60" y="180" width="110" height="40" as="geometry" />
        </mxCell>
        <mxCell id="a5Tx_0ahdsPdAguqlhMa-29" value="RNA-seq reads" style="rounded=1;whiteSpace=wrap;html=1;fillColor=#e3c800;strokeColor=#B09500;fontColor=#000000;" vertex="1" parent="1">
          <mxGeometry x="62" y="232" width="90" height="40" as="geometry" />
        </mxCell>
        <mxCell id="a5Tx_0ahdsPdAguqlhMa-30" value="RNA-seq reads" style="rounded=1;whiteSpace=wrap;html=1;fillColor=#e3c800;strokeColor=#B09500;fontColor=#000000;" vertex="1" parent="1">
          <mxGeometry x="64" y="234" width="90" height="40" as="geometry" />
        </mxCell>
        <mxCell id="a5Tx_0ahdsPdAguqlhMa-31" value="RNA-seq reads" style="rounded=1;whiteSpace=wrap;html=1;fillColor=#e3c800;strokeColor=#B09500;fontColor=#000000;" vertex="1" parent="1">
          <mxGeometry x="66" y="236" width="90" height="40" as="geometry" />
        </mxCell>
        <mxCell id="a5Tx_0ahdsPdAguqlhMa-32" value="RNA-seq reads" style="rounded=1;whiteSpace=wrap;html=1;fillColor=#e3c800;strokeColor=#B09500;fontColor=#000000;" vertex="1" parent="1">
          <mxGeometry x="68" y="238" width="90" height="40" as="geometry" />
        </mxCell>
        <mxCell id="a5Tx_0ahdsPdAguqlhMa-37" style="edgeStyle=orthogonalEdgeStyle;rounded=0;orthogonalLoop=1;jettySize=auto;html=1;entryX=0;entryY=0.5;entryDx=0;entryDy=0;curved=1;" edge="1" parent="1" source="a5Tx_0ahdsPdAguqlhMa-33" target="a5Tx_0ahdsPdAguqlhMa-7">
          <mxGeometry relative="1" as="geometry" />
        </mxCell>
        <mxCell id="a5Tx_0ahdsPdAguqlhMa-42" style="edgeStyle=orthogonalEdgeStyle;rounded=0;orthogonalLoop=1;jettySize=auto;html=1;exitX=1;exitY=0.5;exitDx=0;exitDy=0;entryX=0;entryY=0.5;entryDx=0;entryDy=0;curved=1;" edge="1" parent="1" source="a5Tx_0ahdsPdAguqlhMa-33" target="a5Tx_0ahdsPdAguqlhMa-39">
          <mxGeometry relative="1" as="geometry">
            <Array as="points">
              <mxPoint x="280" y="260" />
              <mxPoint x="280" y="240" />
              <mxPoint x="360" y="240" />
              <mxPoint x="360" y="200" />
            </Array>
          </mxGeometry>
        </mxCell>
        <mxCell id="a5Tx_0ahdsPdAguqlhMa-33" value="RNA-seq reads" style="rounded=1;whiteSpace=wrap;html=1;fillColor=#e3c800;strokeColor=#B09500;fontColor=#000000;" vertex="1" parent="1">
          <mxGeometry x="70" y="240" width="90" height="40" as="geometry" />
        </mxCell>
        <mxCell id="a5Tx_0ahdsPdAguqlhMa-39" value="RNASTAR: second pass" style="rounded=1;whiteSpace=wrap;html=1;fillColor=#e51400;strokeColor=#B20000;fontColor=#ffffff;" vertex="1" parent="1">
          <mxGeometry x="380" y="190" width="140" height="20" as="geometry" />
        </mxCell>
        <mxCell id="a5Tx_0ahdsPdAguqlhMa-44" value="RNA-seq reads" style="rounded=1;whiteSpace=wrap;html=1;fillColor=#f8cecc;strokeColor=#b85450;gradientColor=#ea6b66;" vertex="1" parent="1">
          <mxGeometry x="540" y="175" width="90" height="40" as="geometry" />
        </mxCell>
        <mxCell id="a5Tx_0ahdsPdAguqlhMa-45" value="RNA-seq reads" style="rounded=1;whiteSpace=wrap;html=1;fillColor=#f8cecc;strokeColor=#b85450;gradientColor=#ea6b66;" vertex="1" parent="1">
          <mxGeometry x="542" y="177" width="90" height="40" as="geometry" />
        </mxCell>
        <mxCell id="a5Tx_0ahdsPdAguqlhMa-46" value="RNA-seq reads" style="rounded=1;whiteSpace=wrap;html=1;fillColor=#f8cecc;strokeColor=#b85450;gradientColor=#ea6b66;" vertex="1" parent="1">
          <mxGeometry x="544" y="179" width="90" height="40" as="geometry" />
        </mxCell>
        <mxCell id="a5Tx_0ahdsPdAguqlhMa-47" value="RNA-seq reads" style="rounded=1;whiteSpace=wrap;html=1;fillColor=#f8cecc;strokeColor=#b85450;gradientColor=#ea6b66;" vertex="1" parent="1">
          <mxGeometry x="546" y="181" width="90" height="40" as="geometry" />
        </mxCell>
        <mxCell id="a5Tx_0ahdsPdAguqlhMa-48" value="RNA-seq reads" style="rounded=1;whiteSpace=wrap;html=1;fillColor=#f8cecc;strokeColor=#b85450;gradientColor=#ea6b66;" vertex="1" parent="1">
          <mxGeometry x="548" y="183" width="90" height="40" as="geometry" />
        </mxCell>
        <mxCell id="a5Tx_0ahdsPdAguqlhMa-49" value="Mapped reads" style="rounded=1;whiteSpace=wrap;html=1;fillColor=#f8cecc;strokeColor=#b85450;gradientColor=#ea6b66;" vertex="1" parent="1">
          <mxGeometry x="550" y="185" width="90" height="40" as="geometry" />
        </mxCell>
        <mxCell id="a5Tx_0ahdsPdAguqlhMa-50" style="edgeStyle=orthogonalEdgeStyle;rounded=0;orthogonalLoop=1;jettySize=auto;html=1;exitX=1;exitY=0.5;exitDx=0;exitDy=0;entryX=-0.027;entryY=0.615;entryDx=0;entryDy=0;entryPerimeter=0;dashed=1;" edge="1" parent="1" source="a5Tx_0ahdsPdAguqlhMa-39" target="a5Tx_0ahdsPdAguqlhMa-44">
          <mxGeometry relative="1" as="geometry" />
        </mxCell>
      </root>
    </mxGraphModel>
  </diagram>
</mxfile>
